<svg width="72" height="73" viewBox="0 0 72 73" fill="none" xmlns="http://www.w3.org/2000/svg">
<path d="M21.5334 0.0546875L10.8806 26.6422H32.1862L21.5334 0.0546875ZM10.0759 29.1422V72.944H16.5334V61.694C19.6637 58.242 22.9646 57.6924 26.5334 61.694V72.944H32.7834V29.1422H10.0759ZM15.2834 31.694H17.7834V36.694H15.2834V31.694ZM20.2834 31.694H22.7834V36.694H20.2834V31.694ZM25.2834 31.694H27.7834V36.694H25.2834V31.694ZM35.2834 39.1495V72.9442H42.7834V47.1656C41.4216 45.603 40.0339 44.0632 38.6209 42.5468C37.4646 41.3078 36.2674 40.0703 35.3053 39.1684C35.2967 39.1603 35.2921 39.1575 35.2834 39.1497V39.1495ZM7.57586 39.3475C6.64618 40.2315 5.53149 41.3834 4.44571 42.5468C3.03279 44.0633 1.6451 45.6031 0.283203 47.1656V72.9442H7.57571V39.3473L7.57586 39.3475ZM21.5334 40.4959C26.3667 40.4959 30.3124 44.2646 30.3124 48.8818C30.3124 53.4985 26.3667 57.2678 21.5334 57.2678C16.7001 57.2678 12.7543 53.4985 12.7543 48.8818C12.7543 44.2646 16.7001 40.4959 21.5334 40.4959ZM20.1271 43.0918C19.3965 43.2503 18.6998 43.5367 18.069 43.9379L20.1271 45.9625V43.0921V43.0918ZM22.9396 43.0918V46.1929L25.3053 44.1479C24.6167 43.6475 23.814 43.2831 22.9396 43.0918ZM16.2818 45.6864C15.857 46.3225 15.5633 47.037 15.4177 47.7879H18.4177L16.2818 45.6864ZM26.9826 46.0028L24.9174 47.7881H27.6487C27.5278 47.16 27.3027 46.5565 26.9826 46.0028ZM45.2834 48.1003V52.7878H69.7006L65.0131 48.1003H45.2834ZM15.5748 50.6003C15.729 51.0925 15.9485 51.5619 16.2273 51.9959L17.8413 50.6003H15.5748ZM24.842 50.6003L26.6042 52.334C26.9958 51.8103 27.2959 51.2241 27.492 50.6003H24.842ZM20.1271 51.929L17.9924 53.7748C18.6428 54.2024 19.3665 54.5064 20.1271 54.6714V51.9292V51.929ZM22.9396 52.236V54.6712C23.565 54.5355 24.1663 54.306 24.7231 53.9904L22.9396 52.236ZM45.2834 55.6001V72.7876H71.6897V55.6001H45.2834ZM49.1896 59.1938H52.0021V64.1938H49.1896V59.1938ZM54.1896 59.1938H57.0021V64.1938H54.1896V59.1938ZM59.1897 59.1938H62.0022V64.1938H59.1897V59.1938ZM64.1897 59.1938H67.0022V64.1938H64.1897V59.1938Z" fill="#ABC9E4"/>
</svg>
