<svg width="54" height="67" viewBox="0 0 54 67" fill="none" xmlns="http://www.w3.org/2000/svg">
<path d="M23.6527 15.166H20.3193V18.4993H23.6527V15.166ZM26.986 15.166H30.3193V18.4993H26.986V15.166ZM36.986 15.166H33.6527V18.4993H36.986V15.166ZM20.3193 21.8327H23.6527V25.166H20.3193V21.8327ZM30.3193 21.8327H26.986V25.166H30.3193V21.8327ZM33.6527 21.8327H36.986V25.166H33.6527V21.8327ZM23.6527 28.4993H20.3193V31.8327H23.6527V28.4993ZM26.986 28.4993H30.3193V31.8327H26.986V28.4993ZM36.986 28.4993H33.6527V31.8327H36.986V28.4993ZM20.3193 35.166H23.6527V38.4993H20.3193V35.166ZM30.3193 35.166H26.986V38.4993H30.3193V35.166ZM20.3193 41.8327H23.6527V45.166H20.3193V41.8327ZM30.3193 41.8327H26.986V45.166H30.3193V41.8327ZM20.3193 48.4993H23.6527V51.8327H20.3193V48.4993ZM30.3193 48.4993H26.986V51.8327H30.3193V48.4993ZM20.3193 55.166H23.6527V58.4993H20.3193V55.166ZM30.3193 55.166H26.986V58.4993H30.3193V55.166ZM38.6527 43.4993H43.6527V40.166H38.6527V43.4993ZM43.6527 50.166H38.6527V46.8327H43.6527V50.166ZM38.6527 56.8327H43.6527V53.4993H38.6527V56.8327Z" fill="#ABC9E4"/>
<path fill-rule="evenodd" clip-rule="evenodd" d="M15.3193 0.166016L41.986 10.166V33.4993H48.6527C49.0947 33.4993 49.5186 33.6749 49.8312 33.9875C50.1437 34.3001 50.3193 34.724 50.3193 35.166V63.4993H51.986C52.428 63.4993 52.852 63.6749 53.1645 63.9875C53.4771 64.3001 53.6527 64.724 53.6527 65.166C53.6527 65.608 53.4771 66.032 53.1645 66.3445C52.852 66.6571 52.428 66.8327 51.986 66.8327H1.986C1.54398 66.8327 1.12005 66.6571 0.807492 66.3445C0.494931 66.032 0.319336 65.608 0.319336 65.166C0.319336 64.724 0.494931 64.3001 0.807492 63.9875C1.12005 63.6749 1.54398 63.4993 1.986 63.4993H3.65267V28.4993C3.65267 28.0573 3.82826 27.6334 4.14082 27.3208C4.45339 27.0083 4.87731 26.8327 5.31934 26.8327H8.65267V15.166H11.986V26.8327H15.3193V0.166016ZM18.6527 4.97602L38.6527 12.476V33.4993H33.6527C33.2106 33.4993 32.7867 33.6749 32.4742 33.9875C32.1616 34.3001 31.986 34.724 31.986 35.166V63.4993H18.6527V4.97602ZM6.986 30.166V63.4993H15.3193V30.166H6.986ZM46.986 63.4993H43.6527V60.166H38.6527V63.4993H35.3193V36.8327H46.986V63.4993Z" fill="#ABC9E4"/>
</svg>
