<svg width="206" height="144" viewBox="0 0 206 144" fill="none" xmlns="http://www.w3.org/2000/svg">
<path d="M204.95 34.3V109.7C204.95 109.7 204.95 117.8 195.55 117.8H56.25C56.25 117.8 45 118.9 45 109.7V32.9C45 32.9 45 27.85 49.45 24.95C51.2 23.8 53.7 23 57.15 23H86.05C86.05 23 92.4 23.95 97.55 16C102.7 8.05003 103.85 1.10003 114.2 1.10003H143.75C143.75 1.10003 150.45 -0.0499721 154 5.95003C157.55 11.95 160.1 22.3 166.8 22.85C173.5 23.4 194.6 22.85 194.6 22.85C194.6 22.85 204.95 21.7 204.95 34.3Z" fill="white"/>
<path d="M55.1 118.1C53.25 118.1 49.55 117.8 47.1 115.55C45.55 114.15 44.75 112.15 44.75 109.7V32.8997C44.75 32.8497 44.8 27.6497 49.3 24.7497C51.35 23.3997 53.95 22.7497 57.15 22.7497H86C86.1 22.7497 92.3 23.5997 97.25 15.8997C98.3 14.2497 99.2 12.6997 100 11.1497C103.2 5.39971 105.7 0.849707 114.05 0.849707H143.6C143.6 0.849707 150.45 -0.250293 154.05 5.79971C155.05 7.49971 155.9 9.29971 156.7 11.0997C159.2 16.5497 161.85 22.1497 166.65 22.5997C173.25 23.1497 194.2 22.5997 194.4 22.5997C194.6 22.5997 198.6 22.1997 201.7 24.9497C203.95 26.9497 205.1 30.0997 205.1 34.2997V109.7C205.1 112.6 203.1 118.05 195.45 118.05H56.25C56.2 118.05 55.8 118.1 55.1 118.1ZM86 23.1997H57.15C54.1 23.1997 51.55 23.8497 49.6 25.1497C45.35 27.8997 45.3 32.8497 45.3 32.8997V109.7C45.3 112 46.05 113.85 47.5 115.2C50.65 118.05 56.2 117.55 56.3 117.55H195.5C199.3 117.55 202 116.25 203.5 113.65C204.2 112.45 204.6 111.1 204.65 109.7V34.2997C204.65 30.2497 203.55 27.2497 201.4 25.2997C198.45 22.6497 194.5 23.0497 194.5 23.0497C194.25 23.0497 173.3 23.5997 166.65 23.0497C161.55 22.5997 158.9 16.8497 156.3 11.2497C155.4 9.34971 154.55 7.54971 153.65 5.99971C150.2 0.249708 143.75 1.29971 143.65 1.29971H114.1C106.05 1.29971 103.7 5.49971 100.45 11.3497C99.6 12.8997 98.75 14.4497 97.65 16.0997C94.95 20.2997 91.9 21.9997 89.85 22.6997C88.7 23.1497 87.35 23.3497 86 23.1997Z" fill="#945666"/>
<path d="M204.95 72.5988V109.649C204.95 109.649 204.95 117.749 195.55 117.749H56.25C56.25 117.749 45 118.849 45 109.649V72.5488H204.95V72.5988Z" fill="#E27E99"/>
<path d="M55.1 118.1C53.25 118.1 49.55 117.8 47.1 115.55C45.55 114.15 44.75 112.15 44.75 109.7V72.5996C44.75 72.4496 44.85 72.3496 45 72.3496H204.95C205.1 72.3496 205.2 72.4496 205.2 72.5996V109.65C205.2 112.55 203.2 118 195.55 118H56.25C56.2 118.05 55.8 118.1 55.1 118.1ZM45.25 72.8496V109.65C45.25 111.95 46 113.8 47.45 115.15C50.6 118 56.15 117.5 56.25 117.5H195.5C199.3 117.5 202 116.2 203.5 113.6C204.2 112.4 204.6 111.05 204.65 109.65V72.7996L45.25 72.8496Z" fill="#945666"/>
<path d="M99.3496 23.2488C99.1996 23.2488 99.0996 23.1488 99.0996 22.9988C99.0996 22.8488 99.1996 22.7488 99.3496 22.7488L166.7 22.5488C166.85 22.5488 166.95 22.6488 166.95 22.7988C166.95 22.9488 166.85 23.0488 166.7 23.0488L99.3496 23.2488Z" fill="#945666"/>
<path d="M183.5 142.9C183.5 142.9 172.25 118.55 169.75 102.75C167.25 86.95 172.05 61.85 165.5 58.85C158.95 55.85 154.95 63.05 154.95 63.05L102.05 79.3L94.7999 58.1C94.7999 58.1 96.3499 43.55 88.8499 43.3C81.3499 43.05 82.8999 57.8 82.8999 57.8C82.8999 57.8 72.7999 69.45 77.3999 86.1C81.9999 102.75 98.8999 111.8 112.05 119.9C125.2 128 132.45 142.95 132.45 142.95L183.5 142.9Z" fill="white"/>
<path d="M183.5 143.151H132.55C132.45 143.151 132.35 143.101 132.3 143.001C132.25 142.851 124.95 128.051 112 120.051L108.6 117.951C95.9001 110.201 81.4501 101.451 77.2001 86.1007C74.5001 76.3007 76.5001 65.7507 82.6501 57.6507C82.5501 56.5507 81.8501 48.0507 85.1501 44.5507C86.1001 43.5007 87.4501 42.9507 88.8501 43.0507C90.3001 43.0507 91.6501 43.7007 92.5501 44.8007C95.8501 48.6007 95.1001 57.2007 95.0001 58.0507L102.15 78.9507L154.7 62.8007C155.2 61.9507 159.2 55.6507 165.5 58.6007C169.65 60.5007 169.45 70.3007 169.2 81.6507C169.05 88.9507 168.9 96.5007 169.9 102.701C172.35 118.301 183.5 142.551 183.6 142.801C183.65 142.851 183.65 142.951 183.6 143.051C183.65 143.101 183.6 143.151 183.5 143.151ZM132.75 142.651H183.1C181.7 139.601 171.8 117.401 169.5 102.801C168.5 96.5507 168.65 89.0007 168.8 81.6507C169 70.9507 169.2 60.8507 165.35 59.0507C162.7 57.8507 160.2 58.1507 157.9 60.0007C156.8 60.9007 155.85 61.9507 155.15 63.1507C155.1 63.2007 155.05 63.2507 155 63.2507L102.15 79.5007C102 79.5507 101.9 79.4507 101.85 79.3507L94.6001 58.1507C94.6001 58.1007 94.6001 58.1007 94.6001 58.0507C94.6001 57.9507 95.5501 48.8507 92.2501 45.1007C91.4001 44.1007 90.2001 43.5507 88.9001 43.5007C87.6501 43.4507 86.4501 43.9507 85.6001 44.8507C82.3001 48.4007 83.2501 57.6007 83.2501 57.7007C83.2501 57.7507 83.2501 57.8507 83.2001 57.9007C77.1001 65.9007 75.1001 76.3007 77.7501 86.0007C81.9501 101.201 96.3001 109.901 108.9 117.551C110.05 118.251 111.2 118.951 112.3 119.601C124.7 127.301 131.95 141.101 132.75 142.651Z" fill="#945666"/>
<path d="M124.551 101.9C142.914 101.9 157.801 87.0139 157.801 68.6504C157.801 50.2869 142.914 35.4004 124.551 35.4004C106.187 35.4004 91.3008 50.2869 91.3008 68.6504C91.3008 87.0139 106.187 101.9 124.551 101.9Z" fill="white"/>
<path d="M124.551 102.15C106.051 102.15 91.0508 87.1504 91.0508 68.6504C91.0508 50.1504 106.051 35.1504 124.551 35.1504C143.051 35.1504 158.051 50.1504 158.051 68.6504C158.051 87.1504 143.051 102.1 124.551 102.15ZM124.551 35.6504C106.301 35.6504 91.5508 50.4004 91.5508 68.6504C91.5508 86.9004 106.301 101.65 124.551 101.65C142.801 101.65 157.551 86.9004 157.551 68.6504C157.551 50.4004 142.801 35.6504 124.551 35.6504Z" fill="#945666"/>
<path d="M124.55 95.1996C139.213 95.1996 151.1 83.3128 151.1 68.6496C151.1 53.9865 139.213 42.0996 124.55 42.0996C109.887 42.0996 98 53.9865 98 68.6496C98 83.3128 109.887 95.1996 124.55 95.1996Z" fill="#945666"/>
<path d="M124.55 95.4496C109.75 95.4496 97.75 83.4496 97.75 68.6496C97.75 53.8496 109.75 41.8496 124.55 41.8496C139.35 41.8496 151.35 53.8496 151.35 68.6496C151.35 83.3996 139.35 95.3996 124.55 95.4496ZM124.55 42.3496C110.05 42.3496 98.25 54.0996 98.25 68.6496C98.25 83.1996 110 94.9496 124.55 94.9496C139.1 94.9496 150.85 83.1996 150.85 68.6496C150.85 54.0996 139.1 42.3496 124.55 42.3496Z" fill="#945666"/>
<path d="M133.45 55.9488C135.632 55.9488 137.4 54.1803 137.4 51.9988C137.4 49.8173 135.632 48.0488 133.45 48.0488C131.268 48.0488 129.5 49.8173 129.5 51.9988C129.5 54.1803 131.268 55.9488 133.45 55.9488Z" fill="white"/>
<path d="M133.45 56.1988C131.1 56.1988 129.25 54.2988 129.25 51.9988C129.25 49.6488 131.15 47.7988 133.45 47.7988C135.8 47.7988 137.65 49.6988 137.65 51.9988C137.65 54.2988 135.75 56.1988 133.45 56.1988ZM133.45 48.2988C131.4 48.2988 129.75 49.9488 129.75 51.9988C129.75 54.0488 131.4 55.6988 133.45 55.6988C135.5 55.6988 137.15 54.0488 137.15 51.9988C137.15 49.9488 135.5 48.2988 133.45 48.2988Z" fill="#945666"/>
<path d="M127.151 73.6492C132.038 73.6492 136.001 69.6869 136.001 64.7992C136.001 59.9115 132.038 55.9492 127.151 55.9492C122.263 55.9492 118.301 59.9115 118.301 64.7992C118.301 69.6869 122.263 73.6492 127.151 73.6492Z" fill="white"/>
<path d="M127.151 73.8504C122.151 73.8504 118.051 69.8004 118.051 64.7504C118.051 59.7004 122.101 55.6504 127.151 55.6504C132.151 55.6504 136.251 59.7004 136.251 64.7504C136.201 69.8004 132.151 73.8504 127.151 73.8504ZM127.151 56.2004C122.401 56.2004 118.551 60.0504 118.551 64.8004C118.551 69.5504 122.401 73.4004 127.151 73.4004C131.901 73.4004 135.751 69.5504 135.751 64.8004C135.701 60.0504 131.851 56.2004 127.151 56.2004Z" fill="#945666"/>
<path d="M70.1996 33.4992V36.6492H53.0996V33.4992C53.0996 31.9492 54.3496 30.6992 55.8996 30.6992H67.3996C68.8996 30.6992 70.1496 31.9492 70.1996 33.4992Z" fill="#945666"/>
<path d="M70.1996 36.8992H53.0996C52.9496 36.8992 52.8496 36.7992 52.8496 36.6492V33.4992C52.8496 31.7992 54.1996 30.4492 55.8996 30.4492H67.3996C69.0996 30.4492 70.4496 31.7992 70.4496 33.4992V36.6492C70.3996 36.7492 70.2996 36.8492 70.1996 36.8992ZM53.3496 36.3992H69.9496V33.4992C69.9496 32.0992 68.7996 30.9492 67.3996 30.9492H55.8996C54.4996 30.9492 53.3496 32.0992 53.3496 33.4992V36.3992Z" fill="#945666"/>
<path d="M70.1996 36.5996V39.7496C70.1996 41.2996 68.9496 42.5496 67.3996 42.5496H55.8996C54.3496 42.5496 53.0996 41.2996 53.0996 39.7496V36.5996H70.1996Z" fill="white"/>
<path d="M67.3996 42.7996H55.8996C54.1996 42.7996 52.8496 41.4496 52.8496 39.7496V36.5996C52.8496 36.4496 52.9496 36.3496 53.0996 36.3496H70.1996C70.3496 36.3496 70.4496 36.4496 70.4496 36.5996V39.7496C70.4496 41.4496 69.0996 42.7996 67.3996 42.7996ZM53.3496 36.8996V39.7996C53.3496 41.1996 54.4996 42.3496 55.8996 42.3496H67.3996C68.7996 42.3496 69.9496 41.1996 69.9496 39.7996V36.8996H53.3496Z" fill="#945666"/>
<path d="M59.85 16.0488H81.6C82.5 16.0488 83.2 16.7488 83.2 17.6488V22.9988H58.25V17.6488C58.25 16.7488 58.95 16.0488 59.85 16.0488Z" fill="white"/>
<path d="M83.2 23.2488H58.25C58.1 23.2488 58 23.1488 58 22.9988V17.6488C58 16.5988 58.85 15.7988 59.85 15.7988H81.6C82.65 15.7988 83.45 16.6488 83.45 17.6488V22.9988C83.45 23.1488 83.35 23.2488 83.2 23.2488ZM58.5 22.7488H82.95V17.6488C82.95 16.8988 82.35 16.2988 81.6 16.2988H59.85C59.1 16.2988 58.5 16.8988 58.5 17.6488V22.7488Z" fill="#945666"/>
<path d="M169.75 15.9492H191.5C192.4 15.9492 193.1 16.6492 193.1 17.5492V22.8992H168.15V17.5492C168.15 16.6492 168.85 15.9492 169.75 15.9492Z" fill="white"/>
<path d="M193.1 23.1492H168.15C168 23.1492 167.9 23.0492 167.9 22.8992V17.5492C167.9 16.4992 168.75 15.6992 169.75 15.6992H191.5C192.55 15.6992 193.35 16.5492 193.35 17.5492V22.8992C193.35 23.0492 193.25 23.1492 193.1 23.1492ZM168.4 22.6492H192.85V17.5492C192.85 16.7992 192.25 16.1992 191.5 16.1992H169.75C169 16.1992 168.4 16.7992 168.4 17.5492V22.6492Z" fill="#945666"/>
<path d="M196.551 47.8492C196.401 47.8492 196.301 47.7492 196.301 47.5992V34.7992C196.301 32.6492 194.551 30.9492 192.451 30.9492H171.701C171.551 30.9492 171.451 30.8492 171.451 30.6992C171.451 30.5492 171.551 30.4492 171.701 30.4492H192.451C194.851 30.4492 196.801 32.3992 196.801 34.7992V47.5992C196.801 47.7492 196.701 47.8492 196.551 47.8492Z" fill="#945666"/>
<path d="M89.3503 95.4489C89.2503 95.4489 89.2003 95.3989 89.1503 95.3489C84.3503 87.9989 82.8503 78.1489 82.4503 71.2489C82.2003 66.7489 82.3003 62.2489 82.7503 57.7989C82.7503 57.6489 82.9003 57.5489 83.0503 57.5989C83.2003 57.5989 83.3003 57.7489 83.2503 57.8989C83.2003 58.1489 80.5003 81.2489 89.5503 95.1489C89.6003 95.2489 89.6003 95.3989 89.5003 95.4989C89.4503 95.3989 89.4003 95.4489 89.3503 95.4489Z" fill="#945666"/>
<path d="M21.4004 49.4C27.0004 34.65 31.1504 20.2 37.4504 15.15C43.7504 10.1 64.8004 5.05 73.9004 3.3C83.0004 1.55 85.2504 1.75 86.2004 6.25C87.1504 10.75 76.8504 14.6 65.2004 17.75C53.5504 20.9 47.9504 23.85 47.9504 23.85C47.9504 23.85 45.1004 25.7 45.1004 39.6C45.1004 39.6 52.6504 37.4 64.0004 39.6C75.3504 41.8 93.8004 44.45 94.3504 48.6C94.9004 52.75 86.7004 55.05 76.2504 54.35C65.8004 53.65 49.2504 54.45 49.2504 54.45C49.2504 54.45 64.0504 56.75 74.7004 62.35C85.3504 67.95 87.5504 72.5 85.1504 74.75C82.7504 77 68.2004 72.6 53.2504 73.05C53.2504 73.05 62.1504 75.25 74.2004 82.4C86.2504 89.55 83.1004 99.3 74.7504 96.5C66.4004 93.7 54.6004 85.85 45.2504 87.25C45.2504 87.25 55.2504 90.85 59.1004 99.15C62.9504 107.45 60.5004 115.1 56.3004 115.45C52.1004 115.8 51.1004 104.65 45.2004 102.55V130.1H1.15039C1.15039 130.1 3.95039 89.7 9.35039 75.65C12.8504 66.7 16.9004 57.95 21.4004 49.4Z" fill="white"/>
<path d="M45.0004 130.399H1.15039C1.00039 130.399 0.900391 130.299 0.900391 130.149C0.950391 129.749 3.75039 89.549 9.10039 75.649C12.6004 66.649 16.6504 57.849 21.1504 49.299C22.2004 46.499 23.2504 43.699 24.2004 40.999C28.4504 29.249 32.1004 19.099 37.2504 14.949C43.7504 9.69901 65.8504 4.54901 73.8004 3.04901C82.9504 1.29901 85.4004 1.44902 86.4004 6.19902C87.2004 10.149 80.5004 13.899 65.2004 17.999C53.7004 21.099 48.0504 24.049 48.0004 24.099C47.9504 24.149 45.3504 26.099 45.3004 39.299C46.8504 38.899 54.0004 37.399 64.0004 39.399C65.8004 39.749 67.7504 40.099 69.8504 40.499C81.2004 42.599 94.0504 44.949 94.5504 48.649C94.6504 49.649 94.3004 50.649 93.6004 51.399C91.1504 53.999 84.5004 55.249 76.2004 54.699C68.1504 54.149 56.3504 54.549 51.4504 54.749C56.0004 55.649 66.6504 57.999 74.7504 62.249C81.7504 65.899 85.8004 69.549 86.2004 72.399C86.3504 73.349 86.0004 74.349 85.2504 74.999C83.9504 76.249 79.8004 75.699 73.5504 74.849C68.2004 74.149 61.6004 73.299 54.8504 73.349C61.5004 75.499 68.0004 78.499 74.1504 82.199C81.3504 86.499 83.1504 91.699 81.8004 94.699C80.7004 97.099 77.8504 97.899 74.5004 96.749C71.6504 95.749 68.9004 94.549 66.2004 93.249C59.7004 90.249 52.3504 86.899 46.1004 87.399C48.6504 88.549 56.0004 92.249 59.1504 99.099C62.0004 105.299 61.2504 110.599 59.7004 113.199C58.8004 114.749 57.5504 115.649 56.1504 115.749C53.9504 115.949 52.6504 113.299 51.1504 110.299C49.7004 107.399 48.0504 104.149 45.3504 102.949V130.099C45.3004 130.299 45.2004 130.399 45.0004 130.399ZM1.40039 129.899H44.7504V102.599C44.7504 102.449 44.8504 102.349 45.0004 102.349C45.0504 102.349 45.0504 102.349 45.1004 102.349C48.2004 103.449 49.9504 106.949 51.5004 110.049C52.9504 112.899 54.1504 115.349 56.0504 115.199C57.3004 115.099 58.4504 114.249 59.2504 112.899C60.7004 110.399 61.4504 105.299 58.6504 99.249C54.9004 91.149 45.0504 87.499 44.9504 87.449C44.8504 87.399 44.8004 87.299 44.8004 87.199C44.8004 87.099 44.9004 86.999 45.0004 86.949C51.6004 85.949 59.4504 89.549 66.3504 92.699C69.0504 93.999 71.8004 95.149 74.6504 96.199C77.7504 97.249 80.3504 96.499 81.3504 94.399C82.6504 91.599 80.8504 86.649 73.9004 82.549C62.0504 75.499 53.1504 73.249 53.0504 73.249C52.9504 73.199 52.8504 73.099 52.8504 72.999C52.8504 72.899 52.9504 72.799 53.1004 72.749C60.5004 72.499 67.7004 73.499 73.5504 74.249C79.2504 74.999 83.7004 75.599 84.8504 74.499C85.4504 73.949 85.7504 73.149 85.6504 72.349C85.4504 70.749 83.7004 67.399 74.4504 62.549C64.0004 57.049 49.2504 54.699 49.1004 54.699C48.9504 54.699 48.8504 54.599 48.8504 54.449C48.8504 54.299 48.9504 54.199 49.1004 54.199C49.2504 54.199 65.8004 53.399 76.1504 54.099C84.2004 54.649 90.8504 53.399 93.2004 50.949C93.8504 50.349 94.1504 49.499 94.0504 48.649C93.6504 45.299 80.4004 42.899 69.7504 40.949C67.6504 40.549 65.7004 40.199 63.9004 39.849C52.8004 37.649 45.2004 39.799 45.1504 39.849C45.0504 39.849 45.0004 39.849 44.9504 39.799C44.9004 39.749 44.8504 39.699 44.8504 39.599C44.8504 25.699 47.7004 23.749 47.8004 23.649C47.9004 23.549 53.5504 20.649 65.1004 17.499C79.8504 13.549 86.7004 9.84901 85.9504 6.29901C85.1004 2.14901 83.3004 1.74901 73.9504 3.54901C66.0504 5.04901 44.1004 10.149 37.6504 15.349C32.6504 19.399 29.0004 29.499 24.7504 41.149C23.7504 43.849 22.7504 46.699 21.7004 49.499V49.549C17.2004 58.099 13.2004 66.849 9.70039 75.799C4.50039 89.049 1.70039 126.399 1.40039 129.899Z" fill="#945666"/>
<path d="M25.0502 49.6492C24.9502 49.6492 24.9002 49.5992 24.8502 49.5492C24.8002 49.4492 24.8002 49.2992 24.9502 49.1992C37.5502 41.6992 44.9002 39.3992 45.0002 39.3492C45.1502 39.2992 45.2502 39.3992 45.3002 39.4992C45.3502 39.6492 45.2502 39.7492 45.1502 39.7992C45.0502 39.7992 37.7502 42.0992 25.2502 49.5992C25.1502 49.6492 25.1002 49.6492 25.0502 49.6492Z" fill="#945666"/>
<path d="M39.0012 56.2001C38.9012 56.2001 38.8012 56.1501 38.7512 56.0501C38.7012 55.9001 38.7512 55.8001 38.9012 55.7501C43.1012 54.2001 49.0512 54.3001 49.1012 54.3001C49.2512 54.3001 49.3512 54.4001 49.3512 54.5501C49.3512 54.7001 49.2512 54.8001 49.1012 54.8001C49.0512 54.8001 43.2012 54.7001 39.1012 56.2501C39.0512 56.1501 39.0512 56.2001 39.0012 56.2001Z" fill="#945666"/>
<path d="M53.1013 73.3004H53.0513C48.7013 72.1504 44.1513 72.1504 39.8013 73.3004C39.6513 73.3504 39.5013 73.2504 39.5013 73.1004C39.4513 72.9504 39.5513 72.8004 39.7013 72.8004C44.1513 71.6004 48.8013 71.6004 53.2513 72.8004C53.4013 72.8004 53.5013 72.9504 53.4513 73.1004C53.3513 73.2504 53.2013 73.3504 53.1013 73.3004Z" fill="#945666"/>
<path d="M45 87.55C44.95 87.55 44.95 87.55 44.9 87.55C42.55 86.5 40.15 85.55 37.7 84.75C37.55 84.7 37.5 84.55 37.55 84.45C37.6 84.3 37.75 84.25 37.9 84.25C40.4 85.05 42.8 86 45.2 87.05C45.3 87.1 45.4 87.25 45.3 87.4C45.2 87.5 45.1 87.55 45 87.55Z" fill="#945666"/>
<path d="M45.0006 102.899C40.1506 102.049 31.2506 96.099 30.8506 95.849C30.7506 95.749 30.7006 95.599 30.8006 95.499C30.9006 95.399 31.0506 95.349 31.1506 95.449C31.2506 95.499 40.3506 101.599 45.1006 102.399C45.2506 102.399 45.3506 102.549 45.3006 102.699C45.2506 102.799 45.1506 102.899 45.0006 102.899Z" fill="#945666"/>
</svg>
