<svg width="32" height="33" viewBox="0 0 32 33" fill="none" xmlns="http://www.w3.org/2000/svg">
<g clip-path="url(#clip0_879_1089)">
<path d="M16 0.837891C11.658 0.837891 11.112 0.857891 9.406 0.933891C7.7 1.01389 6.538 1.28189 5.52 1.67789C4.45219 2.07953 3.48498 2.70954 2.686 3.52389C1.87215 4.32328 1.24221 5.29037 0.84 6.35789C0.444 7.37389 0.174 8.53789 0.096 10.2379C0.02 11.9479 0 12.4919 0 16.8399C0 21.1839 0.02 21.7279 0.096 23.4339C0.176 25.1379 0.444 26.2999 0.84 27.3179C1.25 28.3699 1.796 29.2619 2.686 30.1519C3.574 31.0419 4.466 31.5899 5.518 31.9979C6.538 32.3939 7.698 32.6639 9.402 32.7419C11.11 32.8179 11.654 32.8379 16 32.8379C20.346 32.8379 20.888 32.8179 22.596 32.7419C24.298 32.6619 25.464 32.3939 26.482 31.9979C27.5491 31.5961 28.5156 30.966 29.314 30.1519C30.204 29.2619 30.75 28.3699 31.16 27.3179C31.554 26.2999 31.824 25.1379 31.904 23.4339C31.98 21.7279 32 21.1839 32 16.8379C32 12.4919 31.98 11.9479 31.904 10.2399C31.824 8.53789 31.554 7.37389 31.16 6.35789C30.7578 5.29034 30.1279 4.32324 29.314 3.52389C28.5153 2.70924 27.548 2.07918 26.48 1.67789C25.46 1.28189 24.296 1.01189 22.594 0.933891C20.886 0.857891 20.344 0.837891 15.996 0.837891H16.002H16ZM14.566 3.72189H16.002C20.274 3.72189 20.78 3.73589 22.466 3.81389C24.026 3.88389 24.874 4.14589 25.438 4.36389C26.184 4.65389 26.718 5.00189 27.278 5.56189C27.838 6.12189 28.184 6.65389 28.474 7.40189C28.694 7.96389 28.954 8.81189 29.024 10.3719C29.102 12.0579 29.118 12.5639 29.118 16.8339C29.118 21.1039 29.102 21.6119 29.024 23.2979C28.954 24.8579 28.692 25.7039 28.474 26.2679C28.2175 26.9626 27.8081 27.5908 27.276 28.1059C26.716 28.6659 26.184 29.0119 25.436 29.3019C24.876 29.5219 24.028 29.7819 22.466 29.8539C20.78 29.9299 20.274 29.9479 16.002 29.9479C11.73 29.9479 11.222 29.9299 9.536 29.8539C7.976 29.7819 7.13 29.5219 6.566 29.3019C5.871 29.0457 5.24225 28.637 4.726 28.1059C4.1935 27.59 3.78345 26.9612 3.526 26.2659C3.308 25.7039 3.046 24.8559 2.976 23.2959C2.9 21.6099 2.884 21.1039 2.884 16.8299C2.884 12.5579 2.9 12.0539 2.976 10.3679C3.048 8.80789 3.308 7.95989 3.528 7.39589C3.818 6.64989 4.166 6.11589 4.726 5.55589C5.286 4.99589 5.818 4.64989 6.566 4.35989C7.13 4.13989 7.976 3.87989 9.536 3.80789C11.012 3.73989 11.584 3.71989 14.566 3.71789V3.72189ZM24.542 6.37789C24.2899 6.37789 24.0402 6.42755 23.8072 6.52404C23.5743 6.62053 23.3626 6.76196 23.1844 6.94025C23.0061 7.11853 22.8646 7.33019 22.7682 7.56314C22.6717 7.79608 22.622 8.04575 22.622 8.29789C22.622 8.55003 22.6717 8.7997 22.7682 9.03264C22.8646 9.26559 23.0061 9.47725 23.1844 9.65554C23.3626 9.83382 23.5743 9.97525 23.8072 10.0717C24.0402 10.1682 24.2899 10.2179 24.542 10.2179C25.0512 10.2179 25.5396 10.0156 25.8996 9.65554C26.2597 9.29547 26.462 8.80711 26.462 8.29789C26.462 7.78867 26.2597 7.30032 25.8996 6.94025C25.5396 6.58018 25.0512 6.37789 24.542 6.37789ZM16.002 8.62189C14.9121 8.60489 13.8298 8.80486 12.818 9.21017C11.8061 9.61548 10.885 10.218 10.1083 10.9827C9.33157 11.7474 8.71473 12.659 8.29368 13.6644C7.87264 14.6698 7.6558 15.7489 7.6558 16.8389C7.6558 17.9289 7.87264 19.008 8.29368 20.0134C8.71473 21.0188 9.33157 21.9303 10.1083 22.695C10.885 23.4597 11.8061 24.0623 12.818 24.4676C13.8298 24.8729 14.9121 25.0729 16.002 25.0559C18.1591 25.0222 20.2164 24.1417 21.73 22.6044C23.2435 21.0671 24.0918 18.9962 24.0918 16.8389C24.0918 14.6815 23.2435 12.6107 21.73 11.0734C20.2164 9.53606 18.1591 8.65554 16.002 8.62189ZM16.002 11.5039C17.4167 11.5039 18.7734 12.0659 19.7737 13.0662C20.774 14.0665 21.336 15.4232 21.336 16.8379C21.336 18.2526 20.774 19.6093 19.7737 20.6096C18.7734 21.6099 17.4167 22.1719 16.002 22.1719C14.5873 22.1719 13.2306 21.6099 12.2303 20.6096C11.23 19.6093 10.668 18.2526 10.668 16.8379C10.668 15.4232 11.23 14.0665 12.2303 13.0662C13.2306 12.0659 14.5873 11.5039 16.002 11.5039Z" fill="white"/>
</g>
<defs>
<clipPath id="clip0_879_1089">
<rect width="32" height="32" fill="white" transform="translate(0 0.837891)"/>
</clipPath>
</defs>
</svg>
