<svg width="8" height="14" viewBox="0 0 8 14" fill="none" xmlns="http://www.w3.org/2000/svg">
<path d="M0.73597 6.58219L0.735967 6.58219C0.62699 6.6942 0.566016 6.84431 0.566016 7.00059C0.566016 7.15687 0.62699 7.30698 0.735967 7.41899L0.73597 7.41899L6.73523 13.5849C6.73535 13.585 6.73548 13.5851 6.7356 13.5853C6.79024 13.6425 6.85567 13.6884 6.92812 13.7203L6.96839 13.6288L6.92812 13.7203C7.00074 13.7523 7.07897 13.7695 7.15829 13.771C7.23761 13.7725 7.31645 13.7583 7.39023 13.7291C7.46401 13.6999 7.53128 13.6564 7.58814 13.6011C7.645 13.5458 7.69032 13.4797 7.72149 13.4068C7.75265 13.3338 7.76904 13.2554 7.7697 13.1761C7.77035 13.0967 7.75527 13.0181 7.72533 12.9446C7.69545 12.8713 7.65136 12.8046 7.59561 12.7485C7.59548 12.7483 7.59535 12.7482 7.59523 12.7481L2.00251 7.00059L7.59523 1.25309C7.59536 1.25296 7.59548 1.25283 7.59561 1.2527C7.65136 1.19652 7.69545 1.12986 7.72533 1.05657C7.75527 0.983101 7.77035 0.904426 7.7697 0.825093C7.76904 0.745761 7.75265 0.667347 7.72149 0.594391C7.69032 0.521433 7.645 0.45538 7.58814 0.400053C7.53128 0.344728 7.46401 0.301227 7.39023 0.27207C7.31645 0.242912 7.23761 0.228677 7.15829 0.230187C7.07897 0.231697 7.00074 0.248923 6.92812 0.280868C6.85567 0.312737 6.79025 0.358625 6.73562 0.415885C6.73549 0.416021 6.73536 0.416156 6.73523 0.416292L0.73597 6.58219Z" fill="white" stroke="white" stroke-width="0.2"/>
</svg>
