<svg width="36" height="36" viewBox="0 0 36 36" fill="none" xmlns="http://www.w3.org/2000/svg">
<path d="M32.925 18V17.9997C32.9208 14.0427 31.3471 10.249 28.5491 7.45095C25.751 4.65294 21.9573 3.07918 18.0003 3.075H18C15.0481 3.075 12.1625 3.95034 9.70812 5.59032C7.25372 7.2303 5.34074 9.56126 4.2111 12.2884C3.08147 15.0156 2.7859 18.0166 3.36179 20.9117C3.93767 23.8069 5.35914 26.4663 7.44644 28.5536C9.53374 30.6409 12.1931 32.0623 15.0883 32.6382C17.9834 33.2141 20.9844 32.9185 23.7116 31.7889C26.4387 30.6593 28.7697 28.7463 30.4097 26.2919C32.0497 23.8375 32.925 20.9519 32.925 18ZM19.6526 26.4167C19.8709 26.0899 19.9875 25.7056 19.9875 25.3125C19.9875 24.7854 19.7781 24.2799 19.4054 23.9071C19.0327 23.5344 18.5271 23.325 18 23.325C17.6069 23.325 17.2227 23.4416 16.8958 23.66C16.569 23.8783 16.3142 24.1887 16.1638 24.5519C16.0134 24.9151 15.974 25.3147 16.0507 25.7002C16.1274 26.0858 16.3167 26.4399 16.5946 26.7179C16.8726 26.9958 17.2267 27.1851 17.6123 27.2618C17.9978 27.3385 18.3974 27.2991 18.7606 27.1487C19.1238 26.9983 19.4342 26.7435 19.6526 26.4167ZM18 9.825C14.7626 9.825 12.075 12.2015 12.075 15.1875V15.75C12.075 16.1279 12.2251 16.4904 12.4924 16.7576C12.7596 17.0249 13.1221 17.175 13.5 17.175C13.8779 17.175 14.2404 17.0249 14.5076 16.7576C14.7749 16.4904 14.925 16.1279 14.925 15.75V15.1875C14.925 13.855 16.2519 12.675 18 12.675C19.7481 12.675 21.075 13.855 21.075 15.1875C21.075 16.52 19.7481 17.7 18 17.7C17.6221 17.7 17.2596 17.8501 16.9924 18.1174C16.7251 18.3846 16.575 18.7471 16.575 19.125V20.25C16.575 20.6279 16.7251 20.9904 16.9924 21.2576C17.2596 21.5249 17.6221 21.675 18 21.675C18.3779 21.675 18.7404 21.5249 19.0076 21.2576C19.2404 21.0249 19.3843 20.7199 19.4176 20.3953C21.9825 19.8225 23.925 17.7228 23.925 15.1875C23.925 12.2015 21.2374 9.825 18 9.825ZM28.04 11.2915C29.3668 13.2771 30.0749 15.6116 30.075 17.9997C30.0714 21.2011 28.798 24.2704 26.5342 26.5342C24.2704 28.798 21.2011 30.0714 17.9997 30.075C15.6116 30.0749 13.2771 29.3668 11.2915 28.04C9.30577 26.7132 7.75809 24.8273 6.84416 22.6209C5.93023 20.4145 5.69111 17.9866 6.15702 15.6443C6.62294 13.302 7.77297 11.1504 9.46169 9.46169C11.1504 7.77297 13.302 6.62293 15.6443 6.15702C17.9866 5.6911 20.4145 5.93023 22.6209 6.84415C24.8273 7.75808 26.7132 9.30577 28.04 11.2915Z" fill="#ABC9E4" stroke="#ABC9E4" stroke-width="0.6"/>
</svg>
