<svg width="8" height="14" viewBox="0 0 8 14" fill="none" xmlns="http://www.w3.org/2000/svg">
<path d="M7.26012 7.41781L7.26013 7.41781C7.3691 7.3058 7.43008 7.15569 7.43008 6.99941C7.43008 6.84313 7.3691 6.69302 7.26013 6.58101L7.26012 6.58101L1.26086 0.415112C1.26073 0.414972 1.2606 0.414833 1.26047 0.414694C1.20583 0.357437 1.14041 0.311555 1.06797 0.279688C0.995351 0.247744 0.917119 0.230517 0.837798 0.229007C0.758479 0.227498 0.679645 0.241732 0.60586 0.27089C0.532079 0.300047 0.464812 0.343546 0.407951 0.398873C0.351091 0.4542 0.305768 0.520253 0.274605 0.593211C0.243442 0.666167 0.227055 0.744581 0.226397 0.823915C0.225738 0.903247 0.240819 0.981922 0.270766 1.05539C0.300641 1.12868 0.34472 1.19533 0.400463 1.25151C0.400597 1.25164 0.400731 1.25178 0.400865 1.25191L5.99359 6.99941L0.400865 12.7469C0.40073 12.747 0.400595 12.7472 0.40046 12.7473C0.344719 12.8035 0.300641 12.8701 0.270766 12.9434C0.240819 13.0169 0.225738 13.0956 0.226397 13.1749C0.227055 13.2542 0.243442 13.3327 0.274605 13.4056C0.305768 13.4786 0.351091 13.5446 0.407951 13.5999C0.464811 13.6553 0.532078 13.6988 0.605861 13.7279C0.679644 13.7571 0.758478 13.7713 0.837798 13.7698C0.917119 13.7683 0.995351 13.7511 1.06797 13.7191C1.14043 13.6873 1.20586 13.6414 1.26049 13.5841C1.26062 13.584 1.26074 13.5838 1.26086 13.5837L7.26012 7.41781Z" fill="white" stroke="white" stroke-width="0.2"/>
</svg>
