<svg width="81" height="81" viewBox="0 0 81 81" fill="none" xmlns="http://www.w3.org/2000/svg">
<path d="M79.3041 77.3575H75.5944L51.3198 51.5655C51.1661 51.4022 50.9803 51.2725 50.774 51.1846C50.5677 51.0967 50.3454 51.0525 50.1212 51.0547C49.8969 51.057 49.6756 51.1057 49.4711 51.1977C49.2666 51.2897 49.0834 51.4231 48.9331 51.5895L39.4968 62.0577L36.0312 56.8997H39.7655C40.0746 56.8937 40.3757 56.8011 40.6347 56.6324C40.8937 56.4638 41.1002 56.2259 41.2307 55.9457C41.3629 55.6718 41.4141 55.3658 41.3783 55.0638C41.3424 54.7618 41.2211 54.4763 41.0286 54.2409L33.8492 45.3719H37.3091C37.6095 45.3658 37.9025 45.2779 38.1566 45.1177C38.4107 44.9575 38.6164 44.731 38.7514 44.4627C38.8882 44.197 38.9495 43.8988 38.9287 43.6006C38.9079 43.3025 38.8058 43.0157 38.6334 42.7715L32.4204 34.0065H33.7376C34.0424 34.0045 34.3406 33.9173 34.5984 33.7547C34.8563 33.5921 35.0635 33.3606 35.1967 33.0865C35.3298 32.8123 35.3837 32.5063 35.3521 32.2032C35.3205 31.9 35.2047 31.6117 35.0179 31.3709L23.6784 16.8312C23.5239 16.6329 23.3255 16.4732 23.0988 16.3647C22.872 16.2561 22.6232 16.2017 22.3718 16.2057C22.1205 16.2097 21.8735 16.272 21.6503 16.3877C21.4272 16.5034 21.2339 16.6694 21.0858 16.8725L10.5012 31.4097C10.3248 31.6531 10.2188 31.9403 10.1949 32.24C10.171 32.5396 10.2301 32.84 10.3657 33.1083C10.5013 33.3766 10.7081 33.6023 10.9636 33.7608C11.219 33.9192 11.5131 34.0042 11.8137 34.0065H13.0727L6.91409 42.7621C6.743 43.0103 6.64223 43.3001 6.62245 43.6008C6.60267 43.9016 6.66462 44.2021 6.80174 44.4705C6.93738 44.7374 7.14317 44.9624 7.39702 45.1212C7.65086 45.28 7.94316 45.3667 8.24255 45.3719H11.362L4.18217 54.2261C3.98937 54.4666 3.86802 54.7564 3.83197 55.0626C3.79591 55.3687 3.8466 55.6788 3.97825 55.9575C4.10989 56.2362 4.3172 56.4723 4.57654 56.6389C4.83588 56.8055 5.13681 56.8959 5.44503 56.8997H8.48593L1.24453 68.1283C1.08693 68.365 0.997934 68.6408 0.987388 68.9249C0.976842 69.2091 1.04516 69.4907 1.18478 69.7385C1.32707 69.9888 1.535 70.1956 1.78615 70.3366C2.0373 70.4775 2.32215 70.5473 2.61 70.5383H20.8533V77.3575H11.5986C11.168 77.3575 10.755 77.5286 10.4505 77.8331C10.146 78.1376 9.97497 78.5505 9.97497 78.9811C9.97497 79.4118 10.146 79.8247 10.4505 80.1292C10.755 80.4337 11.168 80.6048 11.5986 80.6048H79.3041C79.7347 80.6048 80.1477 80.4337 80.4522 80.1292C80.7567 79.8247 80.9277 79.4118 80.9277 78.9811C80.9277 78.5505 80.7567 78.1376 80.4522 77.8331C80.1477 77.5286 79.7347 77.3575 79.3041 77.3575ZM50.1615 55.0728L71.1353 77.3575H30.0155L36.1242 70.5383H42.1856C42.4772 70.5453 42.7652 70.4719 43.0179 70.3259C43.2705 70.18 43.478 69.9671 43.6176 69.7109C43.7571 69.4547 43.8233 69.1649 43.8088 68.8735C43.7944 68.5821 43.6998 68.3003 43.5356 68.0591L41.3565 64.8046L50.1615 55.0728ZM12.8264 56.0632C12.9839 55.8264 13.0728 55.5506 13.0833 55.2663C13.0938 54.9821 13.0255 54.7005 12.886 54.4526C12.7437 54.2022 12.5358 53.9953 12.2847 53.8543C12.0335 53.7133 11.7486 53.6435 11.4608 53.6525H8.84459L16.0245 44.7373C16.2169 44.501 16.3379 44.2148 16.3733 43.9122C16.4088 43.6096 16.3572 43.3032 16.2246 43.0289C16.092 42.7546 15.8839 42.5239 15.6247 42.3637C15.3655 42.2035 15.0661 42.1206 14.7614 42.1247H11.368L17.5266 33.3293C17.6977 33.0852 17.7986 32.799 17.8186 32.5016C17.8385 32.2042 17.7767 31.9071 17.6398 31.6423C17.503 31.3776 17.2963 31.1553 17.0421 30.9997C16.788 30.844 16.4961 30.7609 16.198 30.7592H15.0043L22.4425 20.5425L30.412 30.7592H29.278C28.9808 30.7573 28.6887 30.8375 28.4341 30.9909C28.1795 31.1443 27.9722 31.365 27.8349 31.6287C27.6981 31.8979 27.6368 32.1992 27.6576 32.5005C27.6784 32.8018 27.7805 33.0918 27.953 33.3397L34.1671 42.1247H30.449C30.1451 42.1185 29.8458 42.1993 29.5862 42.3575C29.3267 42.5157 29.1178 42.7448 28.984 43.0177C28.8518 43.2968 28.8007 43.6074 28.8365 43.9141C28.8722 44.2208 28.9934 44.5113 29.1861 44.7525L36.3666 53.6525H32.9942C32.7027 53.6465 32.4151 53.7206 32.1627 53.8666C31.9103 54.0126 31.7027 54.2249 31.5625 54.4805C31.4238 54.7315 31.358 55.0163 31.3723 55.3027C31.3867 55.5891 31.4806 55.8658 31.6436 56.1017L39.1486 67.291H24.1006V58.6244L27.166 56.0067C27.3278 55.8681 27.4608 55.699 27.5572 55.5089C27.6536 55.3189 27.7116 55.1117 27.7279 54.8993C27.7442 54.6868 27.7185 54.4732 27.6522 54.2707C27.5859 54.0682 27.4803 53.8807 27.3415 53.719C27.2072 53.5563 27.0417 53.422 26.8549 53.3239C26.668 53.2259 26.4635 53.166 26.2533 53.1479C26.0431 53.1297 25.8313 53.1537 25.6305 53.2183C25.4296 53.2829 25.2436 53.3869 25.0834 53.5242L24.1006 54.3776V51.3089C24.1006 50.8783 23.9295 50.4653 23.625 50.1608C23.3205 49.8563 22.9076 49.6853 22.4769 49.6853C22.0463 49.6853 21.6333 49.8563 21.3289 50.1608C21.0244 50.4653 20.8533 50.8783 20.8533 51.3089V59.5739L18.1672 57.9226C17.9862 57.8069 17.7841 57.7282 17.5725 57.6912C17.3609 57.6542 17.144 57.6597 16.9345 57.7072C16.7251 57.7548 16.5271 57.8435 16.3522 57.9682C16.1773 58.0929 16.0289 58.2512 15.9157 58.4337C15.8025 58.6162 15.7267 58.8195 15.6927 59.0316C15.6587 59.2437 15.6671 59.4604 15.7176 59.6692C15.7681 59.878 15.8596 60.0747 15.9867 60.2478C16.1139 60.421 16.2742 60.5671 16.4583 60.6778L20.8533 63.4011V67.291H5.58482L12.8264 56.0632ZM24.1006 70.5383H31.7469L25.638 77.3575H24.1006V70.5383ZM64.3504 24.8828C65.9027 24.8828 67.4202 24.4225 68.7109 23.5601C70.0016 22.6977 71.0076 21.4719 71.6016 20.0377C72.1957 18.6036 72.3511 17.0255 72.0483 15.503C71.7454 13.9805 70.9979 12.582 69.9003 11.4844C68.8026 10.3867 67.4041 9.6392 65.8816 9.33636C64.3591 9.03352 62.781 9.18895 61.3469 9.78299C59.9127 10.377 58.6869 11.383 57.8245 12.6737C56.9621 13.9644 56.5018 15.4819 56.5018 17.0342C56.5041 19.1151 57.3318 21.1101 58.8032 22.5815C60.2746 24.0529 62.2695 24.8805 64.3504 24.8828ZM64.3504 12.4328C65.2605 12.4328 66.1501 12.7027 66.9068 13.2083C67.6635 13.7139 68.2533 14.4325 68.6015 15.2733C68.9498 16.1141 69.0409 17.0393 68.8634 17.9319C68.6858 18.8245 68.2476 19.6443 67.6041 20.2879C66.9606 20.9314 66.1407 21.3696 65.2481 21.5472C64.3555 21.7247 63.4303 21.6336 62.5896 21.2853C61.7488 20.937 61.0301 20.3473 60.5245 19.5906C60.0189 18.8339 59.7491 17.9443 59.7491 17.0342C59.7504 15.8143 60.2357 14.6447 61.0983 13.782C61.9609 12.9194 63.1305 12.4342 64.3504 12.4328Z" fill="#ABC9E4"/>
<path d="M62.7432 27.4654V32.0464C62.7432 32.4771 62.9142 32.89 63.2187 33.1945C63.5232 33.499 63.9362 33.6701 64.3668 33.6701C64.7974 33.6701 65.2104 33.499 65.5149 33.1945C65.8194 32.89 65.9904 32.4771 65.9904 32.0464V27.4654C65.9904 27.0348 65.8194 26.6218 65.5149 26.3173C65.2104 26.0128 64.7974 25.8417 64.3668 25.8417C63.9362 25.8417 63.5232 26.0128 63.2187 26.3173C62.9142 26.6218 62.7432 27.0348 62.7432 27.4654ZM64.3668 8.22483C64.7974 8.22483 65.2104 8.05377 65.5149 7.74928C65.8194 7.44479 65.9904 7.03181 65.9904 6.6012V2.02012C65.9904 1.5895 65.8194 1.17653 65.5149 0.872035C65.2104 0.567545 64.7974 0.396484 64.3668 0.396484C63.9362 0.396484 63.5232 0.567545 63.2187 0.872035C62.9142 1.17653 62.7432 1.5895 62.7432 2.02012V6.6012C62.7432 7.03181 62.9142 7.44479 63.2187 7.74928C63.5232 8.05377 63.9362 8.22483 64.3668 8.22483ZM79.3628 15.3339H74.7818C74.3512 15.3339 73.9382 15.505 73.6337 15.8095C73.3292 16.1139 73.1581 16.5269 73.1581 16.9575C73.1581 17.3882 73.3292 17.8011 73.6337 18.1056C73.9382 18.4101 74.3512 18.5812 74.7818 18.5812H79.3628C79.7935 18.5812 80.2064 18.4101 80.5109 18.1056C80.8154 17.8011 80.9865 17.3882 80.9865 16.9575C80.9865 16.5269 80.8154 16.1139 80.5109 15.8095C80.2064 15.505 79.7935 15.3339 79.3628 15.3339ZM49.3365 18.5812H53.9178C54.3484 18.5812 54.7614 18.4101 55.0658 18.1056C55.3703 17.8011 55.5414 17.3882 55.5414 16.9575C55.5414 16.5269 55.3703 16.1139 55.0658 15.8095C54.7614 15.505 54.3484 15.3339 53.9178 15.3339H49.3365C48.9059 15.3339 48.4929 15.505 48.1884 15.8095C47.884 16.1139 47.7129 16.5269 47.7129 16.9575C47.7129 17.3882 47.884 17.8011 48.1884 18.1056C48.4929 18.4101 48.9059 18.5812 49.3365 18.5812ZM70.5413 23.2248C70.2368 23.5293 70.0658 23.9422 70.0658 24.3728C70.0658 24.8034 70.2368 25.2164 70.5413 25.5209L73.7474 28.7269C74.0518 29.0314 74.4648 29.2025 74.8955 29.2025C75.3261 29.2025 75.7391 29.0315 76.0436 28.727C76.3481 28.4225 76.5192 28.0095 76.5192 27.5789C76.5192 27.1483 76.3481 26.7353 76.0437 26.4308L72.8376 23.2248C72.6869 23.074 72.5079 22.9544 72.3109 22.8728C72.1139 22.7911 71.9027 22.7491 71.6895 22.7491C71.4762 22.7491 71.2651 22.7911 71.0681 22.8728C70.8711 22.9544 70.6921 23.074 70.5413 23.2248ZM55.8617 10.8416C56.1662 11.1461 56.5793 11.3172 57.0099 11.3172C57.4405 11.3172 57.8535 11.1461 58.158 10.8416C58.4626 10.5371 58.6336 10.1241 58.6336 9.69349C58.6336 9.26285 58.4626 8.84984 58.158 8.54533L54.952 5.33931C54.6475 5.0348 54.2345 4.86373 53.8039 4.86373C53.3732 4.86373 52.9602 5.0348 52.6557 5.33931C52.3512 5.64382 52.1801 6.05682 52.1801 6.48746C52.1801 6.9181 52.3512 7.3311 52.6557 7.63561L55.8617 10.8416ZM71.6894 11.317C71.9026 11.3173 72.1138 11.2754 72.3109 11.1938C72.5079 11.1123 72.6868 10.9926 72.8375 10.8416L76.0435 7.63561C76.348 7.3311 76.5191 6.9181 76.5191 6.48746C76.5191 6.05682 76.348 5.64382 76.0435 5.33931C75.739 5.0348 75.326 4.86373 74.8953 4.86373C74.4647 4.86373 74.0517 5.0348 73.7472 5.33931L70.5413 8.54533C70.3143 8.7724 70.1596 9.06171 70.097 9.37666C70.0343 9.69161 70.0665 10.0181 70.1894 10.3147C70.3123 10.6114 70.5204 10.865 70.7874 11.0434C71.0544 11.2218 71.3683 11.317 71.6894 11.317ZM56.135 22.9525L52.6564 26.4311C52.3519 26.7356 52.1808 27.1486 52.1808 27.5792C52.1809 28.0099 52.3519 28.4228 52.6564 28.7273C52.961 29.0318 53.3739 29.2029 53.8046 29.2029C54.2352 29.2028 54.6482 29.0318 54.9527 28.7273L58.4311 25.2485C58.5842 25.0982 58.7061 24.9191 58.7896 24.7215C58.8731 24.5239 58.9166 24.3117 58.9176 24.0972C58.9186 23.8827 58.8771 23.6701 58.7954 23.4717C58.7138 23.2734 58.5937 23.0931 58.442 22.9415C58.2903 22.7898 58.1101 22.6697 57.9117 22.5881C57.7133 22.5064 57.5007 22.4649 57.2862 22.466C57.0717 22.467 56.8595 22.5105 56.6619 22.594C56.4643 22.6775 56.2852 22.7994 56.135 22.9525Z" fill="#ABC9E4"/>
</svg>
