<svg width="22" height="20" viewBox="0 0 22 20" fill="none" xmlns="http://www.w3.org/2000/svg">
<path d="M3.3 5.38634C3.3 4.16292 3.76357 2.98961 4.58873 2.12453C5.41389 1.25944 6.53305 0.773438 7.7 0.773438C8.86695 0.773438 9.98611 1.25944 10.8113 2.12453C11.6364 2.98961 12.1 4.16292 12.1 5.38634C12.1 6.60976 11.6364 7.78307 10.8113 8.64816C9.98611 9.51325 8.86695 9.99925 7.7 9.99925C6.53305 9.99925 5.41389 9.51325 4.58873 8.64816C3.76357 7.78307 3.3 6.60976 3.3 5.38634ZM0 18.1547C0 14.6049 2.74313 11.7291 6.12906 11.7291H9.27094C12.6569 11.7291 15.4 14.6049 15.4 18.1547C15.4 18.7457 14.9428 19.2251 14.3791 19.2251H1.02094C0.457188 19.2251 0 18.7457 0 18.1547ZM20.9447 19.2251H16.2044C16.39 18.8863 16.5 18.4935 16.5 18.0718V17.7835C16.5 15.596 15.5684 13.6319 14.1006 12.3129C14.1831 12.3093 14.2622 12.3057 14.3447 12.3057H16.4553C19.5181 12.3057 22 14.9077 22 18.1187C22 18.7313 21.5256 19.2251 20.9447 19.2251ZM14.85 9.99925C13.7844 9.99925 12.8219 9.54516 12.1241 8.81359C12.8013 7.85497 13.2 6.66931 13.2 5.38634C13.2 4.42052 12.9731 3.50875 12.5709 2.7087C13.2103 2.21857 13.9975 1.92666 14.85 1.92666C16.9778 1.92666 18.7 3.73218 18.7 5.96295C18.7 8.19373 16.9778 9.99925 14.85 9.99925Z" fill="#E27E99"/>
</svg>
